<mxfile host="Electron" modified="2023-12-13T17:47:44.949Z" agent="Mozilla/5.0 (X11; Linux x86_64) AppleWebKit/537.36 (KHTML, like Gecko) draw.io/21.1.2 Chrome/106.0.5249.199 Electron/21.4.3 Safari/537.36" etag="jxDEY4g2ilYK8FnU-wEj" version="21.1.2" type="device">
  <diagram name="PÃ¡gina-1" id="Q39FMLRvRPiPcKhhfCA-">
    <mxGraphModel dx="2874" dy="516" grid="0" gridSize="10" guides="1" tooltips="0" connect="1" arrows="1" fold="1" page="0" pageScale="1" pageWidth="827" pageHeight="1169" background="#191A21" math="0" shadow="0">
      <root>
        <object label="" fundo="" id="0">
          <mxCell />
        </object>
        <mxCell id="ufFklaLvF3Zcsidc5OTK-153" value="action" style="" parent="0" />
        <UserObject label="exe" link="data:action/json,{   &quot;title&quot;: &quot;limpar&quot;,   &quot;actions&quot;: [       {         &quot;hide&quot;: { 		&quot;cells&quot;: [ 		  &quot;2itxbGJ-XOyHhQqazjQB-28&quot;, 		  &quot;2itxbGJ-XOyHhQqazjQB-41&quot;, 		  &quot;2itxbGJ-XOyHhQqazjQB-55&quot;, 		  &quot;2itxbGJ-XOyHhQqazjQB-65&quot;, 		  &quot;2itxbGJ-XOyHhQqazjQB-77&quot; 		] 	}       },       { &quot;show&quot;: { &quot;cells&quot;: [&quot;2itxbGJ-XOyHhQqazjQB-3&quot;] } },       { &quot;hide&quot;: { &quot;cells&quot;: [&quot;2itxbGJ-XOyHhQqazjQB-3&quot;] } },       { &quot;wait&quot;: &quot;200&quot;},       { &quot;show&quot;: { &quot;cells&quot;: [&quot;2itxbGJ-XOyHhQqazjQB-15&quot;] } },       { &quot;hide&quot;: { &quot;cells&quot;: [&quot;2itxbGJ-XOyHhQqazjQB-15&quot;] } },       { &quot;wait&quot;: &quot;200&quot;},       { &quot;show&quot;: { &quot;cells&quot;: [&quot;2itxbGJ-XOyHhQqazjQB-28&quot;] } },       { &quot;hide&quot;: { &quot;cells&quot;: [&quot;2itxbGJ-XOyHhQqazjQB-28&quot;] } },       { &quot;wait&quot;: &quot;200&quot;},       { &quot;show&quot;: { &quot;cells&quot;: [&quot;2itxbGJ-XOyHhQqazjQB-41&quot;] } },       { &quot;hide&quot;: { &quot;cells&quot;: [&quot;2itxbGJ-XOyHhQqazjQB-41&quot;] } },       { &quot;wait&quot;: &quot;200&quot;},       { &quot;show&quot;: { &quot;cells&quot;: [&quot;2itxbGJ-XOyHhQqazjQB-55&quot;] } },       { &quot;hide&quot;: { &quot;cells&quot;: [&quot;2itxbGJ-XOyHhQqazjQB-55&quot;] } },       { &quot;wait&quot;: &quot;200&quot;},       { &quot;show&quot;: { &quot;cells&quot;: [&quot;2itxbGJ-XOyHhQqazjQB-65&quot;] } },       { &quot;hide&quot;: { &quot;cells&quot;: [&quot;2itxbGJ-XOyHhQqazjQB-65&quot;] } },       { &quot;wait&quot;: &quot;200&quot;},       { &quot;show&quot;: { &quot;cells&quot;: [&quot;2itxbGJ-XOyHhQqazjQB-77&quot;] } },       { &quot;hide&quot;: { &quot;cells&quot;: [&quot;2itxbGJ-XOyHhQqazjQB-77&quot;] } }   ] }" id="ufFklaLvF3Zcsidc5OTK-172">
          <mxCell style="rounded=1;whiteSpace=wrap;html=1;fontSize=25;fillColor=#f5f5f5;fontColor=#333333;strokeColor=#666666;strokeWidth=3;" parent="ufFklaLvF3Zcsidc5OTK-153" vertex="1">
            <mxGeometry x="-521" y="796" width="210" height="60" as="geometry" />
          </mxCell>
        </UserObject>
        <mxCell id="2itxbGJ-XOyHhQqazjQB-77" value="camada8" style="" visible="0" parent="0" />
        <mxCell id="2itxbGJ-XOyHhQqazjQB-78" style="edgeStyle=none;curved=1;rounded=0;orthogonalLoop=1;jettySize=auto;html=1;fontSize=12;startSize=8;endSize=8;endArrow=block;endFill=1;strokeWidth=1;strokeColor=#FFFFFF;flowAnimation=0;" edge="1" parent="2itxbGJ-XOyHhQqazjQB-77" source="2itxbGJ-XOyHhQqazjQB-79" target="2itxbGJ-XOyHhQqazjQB-81">
          <mxGeometry relative="1" as="geometry" />
        </mxCell>
        <mxCell id="2itxbGJ-XOyHhQqazjQB-79" value="Exchange" style="rhombus;whiteSpace=wrap;html=1;fontSize=15;strokeWidth=2;fontStyle=1" vertex="1" parent="2itxbGJ-XOyHhQqazjQB-77">
          <mxGeometry x="-117.15999999999997" y="1025.5" width="105" height="105" as="geometry" />
        </mxCell>
        <mxCell id="2itxbGJ-XOyHhQqazjQB-80" style="edgeStyle=none;curved=1;rounded=0;orthogonalLoop=1;jettySize=auto;html=1;fontSize=12;startSize=8;endSize=8;endArrow=block;endFill=1;strokeWidth=2;entryX=0.003;entryY=0.463;entryDx=0;entryDy=0;entryPerimeter=0;strokeColor=#3DFF1F;flowAnimation=1;exitX=1.015;exitY=0.539;exitDx=0;exitDy=0;exitPerimeter=0;" edge="1" parent="2itxbGJ-XOyHhQqazjQB-77" source="2itxbGJ-XOyHhQqazjQB-81">
          <mxGeometry relative="1" as="geometry">
            <mxPoint x="232" y="1080.0567709996806" as="sourcePoint" />
            <mxPoint x="323.192" y="1080.6319999999998" as="targetPoint" />
          </mxGeometry>
        </mxCell>
        <mxCell id="2itxbGJ-XOyHhQqazjQB-81" value="Queue" style="rounded=1;whiteSpace=wrap;html=1;fontSize=11;fontStyle=1;fillColor=#191A21;" vertex="1" parent="2itxbGJ-XOyHhQqazjQB-77">
          <mxGeometry x="94" y="1048" width="120" height="60" as="geometry" />
        </mxCell>
        <mxCell id="2itxbGJ-XOyHhQqazjQB-82" value="Producer" style="ellipse;whiteSpace=wrap;html=1;aspect=fixed;fontSize=10;fontStyle=1;strokeWidth=2;" vertex="1" parent="2itxbGJ-XOyHhQqazjQB-77">
          <mxGeometry x="-298" y="1038" width="80" height="80" as="geometry" />
        </mxCell>
        <mxCell id="2itxbGJ-XOyHhQqazjQB-83" value="" style="endArrow=block;html=1;rounded=0;fontSize=12;startSize=8;endSize=8;curved=1;endFill=1;strokeWidth=1;flowAnimation=0;strokeColor=#FFFFFF;" edge="1" parent="2itxbGJ-XOyHhQqazjQB-77">
          <mxGeometry relative="1" as="geometry">
            <mxPoint x="-218" y="1077.9" as="sourcePoint" />
            <mxPoint x="-118" y="1077.9" as="targetPoint" />
          </mxGeometry>
        </mxCell>
        <mxCell id="2itxbGJ-XOyHhQqazjQB-86" value="Producer" style="ellipse;whiteSpace=wrap;html=1;aspect=fixed;fontSize=10;fontStyle=1;strokeWidth=2;" vertex="1" parent="2itxbGJ-XOyHhQqazjQB-77">
          <mxGeometry x="325" y="1038" width="80" height="80" as="geometry" />
        </mxCell>
        <mxCell id="2itxbGJ-XOyHhQqazjQB-87" value="" style="edgeStyle=none;curved=1;rounded=0;orthogonalLoop=1;jettySize=auto;html=1;fontSize=12;startSize=8;endSize=8;endArrow=block;endFill=1;strokeWidth=2;entryX=0.003;entryY=0.463;entryDx=0;entryDy=0;entryPerimeter=0;strokeColor=#3DFF1F;flowAnimation=1;" edge="1" parent="2itxbGJ-XOyHhQqazjQB-77">
          <mxGeometry relative="1" as="geometry">
            <mxPoint x="215" y="1080" as="sourcePoint" />
            <mxPoint x="214.05399999999986" y="1079.556" as="targetPoint" />
          </mxGeometry>
        </mxCell>
        <mxCell id="2itxbGJ-XOyHhQqazjQB-88" value="" style="shape=message;html=1;html=1;outlineConnect=0;labelPosition=center;verticalLabelPosition=bottom;align=center;verticalAlign=top;fontSize=16;" vertex="1" parent="2itxbGJ-XOyHhQqazjQB-77">
          <mxGeometry x="145" y="1032" width="18" height="12" as="geometry" />
        </mxCell>
        <mxCell id="2itxbGJ-XOyHhQqazjQB-65" value="camada7" style="" visible="0" parent="0" />
        <mxCell id="2itxbGJ-XOyHhQqazjQB-66" style="edgeStyle=none;curved=1;rounded=0;orthogonalLoop=1;jettySize=auto;html=1;fontSize=12;startSize=8;endSize=8;endArrow=block;endFill=1;strokeWidth=1;strokeColor=#FFFFFF;flowAnimation=0;" edge="1" parent="2itxbGJ-XOyHhQqazjQB-65" source="2itxbGJ-XOyHhQqazjQB-67" target="2itxbGJ-XOyHhQqazjQB-69">
          <mxGeometry relative="1" as="geometry" />
        </mxCell>
        <mxCell id="2itxbGJ-XOyHhQqazjQB-67" value="Exchange" style="rhombus;whiteSpace=wrap;html=1;fontSize=15;strokeWidth=2;fontStyle=1" vertex="1" parent="2itxbGJ-XOyHhQqazjQB-65">
          <mxGeometry x="-117.15999999999997" y="1025.5" width="105" height="105" as="geometry" />
        </mxCell>
        <mxCell id="2itxbGJ-XOyHhQqazjQB-68" style="edgeStyle=none;curved=1;rounded=0;orthogonalLoop=1;jettySize=auto;html=1;fontSize=12;startSize=8;endSize=8;endArrow=block;endFill=1;strokeWidth=2;entryX=0.003;entryY=0.463;entryDx=0;entryDy=0;entryPerimeter=0;strokeColor=#3DFF1F;flowAnimation=1;exitX=1.015;exitY=0.539;exitDx=0;exitDy=0;exitPerimeter=0;" edge="1" parent="2itxbGJ-XOyHhQqazjQB-65" source="2itxbGJ-XOyHhQqazjQB-69">
          <mxGeometry relative="1" as="geometry">
            <mxPoint x="232" y="1080.0567709996806" as="sourcePoint" />
            <mxPoint x="323.192" y="1080.6319999999998" as="targetPoint" />
          </mxGeometry>
        </mxCell>
        <mxCell id="2itxbGJ-XOyHhQqazjQB-69" value="Queue" style="rounded=1;whiteSpace=wrap;html=1;fontSize=11;fontStyle=1;fillColor=#191A21;" vertex="1" parent="2itxbGJ-XOyHhQqazjQB-65">
          <mxGeometry x="94" y="1048" width="120" height="60" as="geometry" />
        </mxCell>
        <mxCell id="2itxbGJ-XOyHhQqazjQB-70" value="Producer" style="ellipse;whiteSpace=wrap;html=1;aspect=fixed;fontSize=10;fontStyle=1;strokeWidth=2;" vertex="1" parent="2itxbGJ-XOyHhQqazjQB-65">
          <mxGeometry x="-298" y="1038" width="80" height="80" as="geometry" />
        </mxCell>
        <mxCell id="2itxbGJ-XOyHhQqazjQB-71" value="" style="endArrow=block;html=1;rounded=0;fontSize=12;startSize=8;endSize=8;curved=1;endFill=1;strokeWidth=1;flowAnimation=0;strokeColor=#FFFFFF;" edge="1" parent="2itxbGJ-XOyHhQqazjQB-65">
          <mxGeometry relative="1" as="geometry">
            <mxPoint x="-218" y="1077.9" as="sourcePoint" />
            <mxPoint x="-118" y="1077.9" as="targetPoint" />
          </mxGeometry>
        </mxCell>
        <mxCell id="2itxbGJ-XOyHhQqazjQB-75" style="edgeStyle=none;curved=1;rounded=0;orthogonalLoop=1;jettySize=auto;html=1;fontSize=12;startSize=8;endSize=8;endArrow=block;endFill=1;" edge="1" parent="2itxbGJ-XOyHhQqazjQB-65">
          <mxGeometry relative="1" as="geometry">
            <mxPoint x="325" y="1067" as="sourcePoint" />
            <mxPoint x="214" y="1067" as="targetPoint" />
          </mxGeometry>
        </mxCell>
        <mxCell id="2itxbGJ-XOyHhQqazjQB-76" value="Reject" style="edgeLabel;html=1;align=center;verticalAlign=middle;resizable=0;points=[];fontSize=11;" vertex="1" connectable="0" parent="2itxbGJ-XOyHhQqazjQB-75">
          <mxGeometry x="0.1063" y="1" relative="1" as="geometry">
            <mxPoint x="8" y="-2" as="offset" />
          </mxGeometry>
        </mxCell>
        <mxCell id="2itxbGJ-XOyHhQqazjQB-72" value="Producer" style="ellipse;whiteSpace=wrap;html=1;aspect=fixed;fontSize=10;fontStyle=1;strokeWidth=2;" vertex="1" parent="2itxbGJ-XOyHhQqazjQB-65">
          <mxGeometry x="325" y="1038" width="80" height="80" as="geometry" />
        </mxCell>
        <mxCell id="2itxbGJ-XOyHhQqazjQB-74" value="" style="edgeStyle=none;curved=1;rounded=0;orthogonalLoop=1;jettySize=auto;html=1;fontSize=12;startSize=8;endSize=8;endArrow=block;endFill=1;strokeWidth=2;entryX=0.003;entryY=0.463;entryDx=0;entryDy=0;entryPerimeter=0;strokeColor=#3DFF1F;flowAnimation=1;" edge="1" parent="2itxbGJ-XOyHhQqazjQB-65">
          <mxGeometry relative="1" as="geometry">
            <mxPoint x="215" y="1080" as="sourcePoint" />
            <mxPoint x="214.05399999999986" y="1079.556" as="targetPoint" />
          </mxGeometry>
        </mxCell>
        <mxCell id="2itxbGJ-XOyHhQqazjQB-55" value="camada6" style="" visible="0" parent="0" />
        <mxCell id="2itxbGJ-XOyHhQqazjQB-56" style="edgeStyle=none;curved=1;rounded=0;orthogonalLoop=1;jettySize=auto;html=1;fontSize=12;startSize=8;endSize=8;endArrow=block;endFill=1;strokeWidth=1;strokeColor=#FFFFFF;flowAnimation=0;" edge="1" parent="2itxbGJ-XOyHhQqazjQB-55" source="2itxbGJ-XOyHhQqazjQB-57" target="2itxbGJ-XOyHhQqazjQB-59">
          <mxGeometry relative="1" as="geometry" />
        </mxCell>
        <mxCell id="2itxbGJ-XOyHhQqazjQB-57" value="Exchange" style="rhombus;whiteSpace=wrap;html=1;fontSize=15;strokeWidth=2;fontStyle=1" vertex="1" parent="2itxbGJ-XOyHhQqazjQB-55">
          <mxGeometry x="-117.15999999999997" y="1025.5" width="105" height="105" as="geometry" />
        </mxCell>
        <mxCell id="2itxbGJ-XOyHhQqazjQB-58" style="edgeStyle=none;curved=1;rounded=0;orthogonalLoop=1;jettySize=auto;html=1;fontSize=12;startSize=8;endSize=8;endArrow=block;endFill=1;strokeWidth=2;entryX=0.003;entryY=0.463;entryDx=0;entryDy=0;entryPerimeter=0;strokeColor=#3DFF1F;flowAnimation=1;exitX=1.015;exitY=0.539;exitDx=0;exitDy=0;exitPerimeter=0;" edge="1" parent="2itxbGJ-XOyHhQqazjQB-55" source="2itxbGJ-XOyHhQqazjQB-59">
          <mxGeometry relative="1" as="geometry">
            <mxPoint x="232" y="1080.0567709996806" as="sourcePoint" />
            <mxPoint x="323.192" y="1080.6319999999998" as="targetPoint" />
          </mxGeometry>
        </mxCell>
        <mxCell id="2itxbGJ-XOyHhQqazjQB-59" value="Queue" style="rounded=1;whiteSpace=wrap;html=1;fontSize=11;fontStyle=1;fillColor=#191A21;" vertex="1" parent="2itxbGJ-XOyHhQqazjQB-55">
          <mxGeometry x="94" y="1048" width="120" height="60" as="geometry" />
        </mxCell>
        <mxCell id="2itxbGJ-XOyHhQqazjQB-60" value="Producer" style="ellipse;whiteSpace=wrap;html=1;aspect=fixed;fontSize=10;fontStyle=1;strokeWidth=2;" vertex="1" parent="2itxbGJ-XOyHhQqazjQB-55">
          <mxGeometry x="-298" y="1038" width="80" height="80" as="geometry" />
        </mxCell>
        <mxCell id="2itxbGJ-XOyHhQqazjQB-61" value="" style="endArrow=block;html=1;rounded=0;fontSize=12;startSize=8;endSize=8;curved=1;endFill=1;strokeWidth=1;flowAnimation=0;strokeColor=#FFFFFF;" edge="1" parent="2itxbGJ-XOyHhQqazjQB-55">
          <mxGeometry relative="1" as="geometry">
            <mxPoint x="-218" y="1077.9" as="sourcePoint" />
            <mxPoint x="-118" y="1077.9" as="targetPoint" />
          </mxGeometry>
        </mxCell>
        <mxCell id="2itxbGJ-XOyHhQqazjQB-62" value="Producer" style="ellipse;whiteSpace=wrap;html=1;aspect=fixed;fontSize=10;fontStyle=1;strokeWidth=2;" vertex="1" parent="2itxbGJ-XOyHhQqazjQB-55">
          <mxGeometry x="325" y="1038" width="80" height="80" as="geometry" />
        </mxCell>
        <mxCell id="2itxbGJ-XOyHhQqazjQB-63" value="" style="shape=message;html=1;html=1;outlineConnect=0;labelPosition=center;verticalLabelPosition=bottom;align=center;verticalAlign=top;fontSize=16;" vertex="1" parent="2itxbGJ-XOyHhQqazjQB-55">
          <mxGeometry x="291" y="1074" width="18" height="12" as="geometry" />
        </mxCell>
        <mxCell id="2itxbGJ-XOyHhQqazjQB-64" value="" style="edgeStyle=none;curved=1;rounded=0;orthogonalLoop=1;jettySize=auto;html=1;fontSize=12;startSize=8;endSize=8;endArrow=block;endFill=1;strokeWidth=2;entryX=0.003;entryY=0.463;entryDx=0;entryDy=0;entryPerimeter=0;strokeColor=#3DFF1F;flowAnimation=1;" edge="1" parent="2itxbGJ-XOyHhQqazjQB-55">
          <mxGeometry relative="1" as="geometry">
            <mxPoint x="215" y="1080" as="sourcePoint" />
            <mxPoint x="214.05399999999986" y="1079.556" as="targetPoint" />
          </mxGeometry>
        </mxCell>
        <mxCell id="2itxbGJ-XOyHhQqazjQB-41" value="camada5" style="" visible="0" parent="0" />
        <mxCell id="2itxbGJ-XOyHhQqazjQB-42" style="edgeStyle=none;curved=1;rounded=0;orthogonalLoop=1;jettySize=auto;html=1;fontSize=12;startSize=8;endSize=8;endArrow=block;endFill=1;strokeWidth=1;strokeColor=#FFFFFF;flowAnimation=0;" edge="1" parent="2itxbGJ-XOyHhQqazjQB-41" source="2itxbGJ-XOyHhQqazjQB-43" target="2itxbGJ-XOyHhQqazjQB-45">
          <mxGeometry relative="1" as="geometry" />
        </mxCell>
        <mxCell id="2itxbGJ-XOyHhQqazjQB-43" value="Exchange" style="rhombus;whiteSpace=wrap;html=1;fontSize=15;strokeWidth=2;fontStyle=1" vertex="1" parent="2itxbGJ-XOyHhQqazjQB-41">
          <mxGeometry x="-117.15999999999997" y="1025.5" width="105" height="105" as="geometry" />
        </mxCell>
        <mxCell id="2itxbGJ-XOyHhQqazjQB-44" style="edgeStyle=none;curved=1;rounded=0;orthogonalLoop=1;jettySize=auto;html=1;fontSize=12;startSize=8;endSize=8;endArrow=block;endFill=1;strokeWidth=2;entryX=0.003;entryY=0.463;entryDx=0;entryDy=0;entryPerimeter=0;strokeColor=#3DFF1F;flowAnimation=1;exitX=1.015;exitY=0.539;exitDx=0;exitDy=0;exitPerimeter=0;" edge="1" parent="2itxbGJ-XOyHhQqazjQB-41" source="2itxbGJ-XOyHhQqazjQB-45">
          <mxGeometry relative="1" as="geometry">
            <mxPoint x="232" y="1080.0567709996806" as="sourcePoint" />
            <mxPoint x="323.192" y="1080.6319999999998" as="targetPoint" />
          </mxGeometry>
        </mxCell>
        <mxCell id="2itxbGJ-XOyHhQqazjQB-45" value="Queue" style="rounded=1;whiteSpace=wrap;html=1;fontSize=11;fontStyle=1;fillColor=#191A21;" vertex="1" parent="2itxbGJ-XOyHhQqazjQB-41">
          <mxGeometry x="94" y="1048" width="120" height="60" as="geometry" />
        </mxCell>
        <mxCell id="2itxbGJ-XOyHhQqazjQB-46" value="Producer" style="ellipse;whiteSpace=wrap;html=1;aspect=fixed;fontSize=10;fontStyle=1;strokeWidth=2;" vertex="1" parent="2itxbGJ-XOyHhQqazjQB-41">
          <mxGeometry x="-298" y="1038" width="80" height="80" as="geometry" />
        </mxCell>
        <mxCell id="2itxbGJ-XOyHhQqazjQB-47" value="" style="endArrow=block;html=1;rounded=0;fontSize=12;startSize=8;endSize=8;curved=1;endFill=1;strokeWidth=1;flowAnimation=0;strokeColor=#FFFFFF;" edge="1" parent="2itxbGJ-XOyHhQqazjQB-41">
          <mxGeometry relative="1" as="geometry">
            <mxPoint x="-218" y="1077.9" as="sourcePoint" />
            <mxPoint x="-118" y="1077.9" as="targetPoint" />
          </mxGeometry>
        </mxCell>
        <mxCell id="2itxbGJ-XOyHhQqazjQB-50" value="Producer" style="ellipse;whiteSpace=wrap;html=1;aspect=fixed;fontSize=10;fontStyle=1;strokeWidth=2;" vertex="1" parent="2itxbGJ-XOyHhQqazjQB-41">
          <mxGeometry x="325" y="1038" width="80" height="80" as="geometry" />
        </mxCell>
        <mxCell id="2itxbGJ-XOyHhQqazjQB-51" value="" style="shape=message;html=1;html=1;outlineConnect=0;labelPosition=center;verticalLabelPosition=bottom;align=center;verticalAlign=top;fontSize=16;" vertex="1" parent="2itxbGJ-XOyHhQqazjQB-41">
          <mxGeometry x="216" y="1074" width="18" height="12" as="geometry" />
        </mxCell>
        <mxCell id="2itxbGJ-XOyHhQqazjQB-52" value="" style="edgeStyle=none;curved=1;rounded=0;orthogonalLoop=1;jettySize=auto;html=1;fontSize=12;startSize=8;endSize=8;endArrow=block;endFill=1;strokeWidth=2;entryX=0.003;entryY=0.463;entryDx=0;entryDy=0;entryPerimeter=0;strokeColor=#3DFF1F;flowAnimation=1;" edge="1" parent="2itxbGJ-XOyHhQqazjQB-41">
          <mxGeometry relative="1" as="geometry">
            <mxPoint x="215" y="1080" as="sourcePoint" />
            <mxPoint x="214.05399999999986" y="1079.556" as="targetPoint" />
          </mxGeometry>
        </mxCell>
        <mxCell id="2itxbGJ-XOyHhQqazjQB-28" value="camada4" style="" visible="0" parent="0" />
        <mxCell id="2itxbGJ-XOyHhQqazjQB-29" style="edgeStyle=none;curved=1;rounded=0;orthogonalLoop=1;jettySize=auto;html=1;fontSize=12;startSize=8;endSize=8;endArrow=block;endFill=1;strokeWidth=1;strokeColor=#FFFFFF;flowAnimation=0;" edge="1" parent="2itxbGJ-XOyHhQqazjQB-28" source="2itxbGJ-XOyHhQqazjQB-30" target="2itxbGJ-XOyHhQqazjQB-32">
          <mxGeometry relative="1" as="geometry" />
        </mxCell>
        <mxCell id="2itxbGJ-XOyHhQqazjQB-30" value="Exchange" style="rhombus;whiteSpace=wrap;html=1;fontSize=15;strokeWidth=2;fontStyle=1" vertex="1" parent="2itxbGJ-XOyHhQqazjQB-28">
          <mxGeometry x="-117.15999999999997" y="1025.5" width="105" height="105" as="geometry" />
        </mxCell>
        <mxCell id="2itxbGJ-XOyHhQqazjQB-31" style="edgeStyle=none;curved=1;rounded=0;orthogonalLoop=1;jettySize=auto;html=1;fontSize=12;startSize=8;endSize=8;endArrow=block;endFill=1;strokeWidth=2;entryX=0.003;entryY=0.463;entryDx=0;entryDy=0;entryPerimeter=0;strokeColor=#3DFF1F;flowAnimation=1;exitX=1.015;exitY=0.539;exitDx=0;exitDy=0;exitPerimeter=0;" edge="1" parent="2itxbGJ-XOyHhQqazjQB-28" source="2itxbGJ-XOyHhQqazjQB-32">
          <mxGeometry relative="1" as="geometry">
            <mxPoint x="232" y="1080.0567709996806" as="sourcePoint" />
            <mxPoint x="323.192" y="1080.6319999999998" as="targetPoint" />
          </mxGeometry>
        </mxCell>
        <mxCell id="2itxbGJ-XOyHhQqazjQB-32" value="Queue" style="rounded=1;whiteSpace=wrap;html=1;fontSize=11;fontStyle=1;fillColor=#191A21;" vertex="1" parent="2itxbGJ-XOyHhQqazjQB-28">
          <mxGeometry x="94" y="1048" width="120" height="60" as="geometry" />
        </mxCell>
        <mxCell id="2itxbGJ-XOyHhQqazjQB-33" value="Producer" style="ellipse;whiteSpace=wrap;html=1;aspect=fixed;fontSize=10;fontStyle=1;strokeWidth=2;" vertex="1" parent="2itxbGJ-XOyHhQqazjQB-28">
          <mxGeometry x="-298" y="1038" width="80" height="80" as="geometry" />
        </mxCell>
        <mxCell id="2itxbGJ-XOyHhQqazjQB-34" value="" style="endArrow=block;html=1;rounded=0;fontSize=12;startSize=8;endSize=8;curved=1;endFill=1;strokeWidth=1;flowAnimation=0;strokeColor=#FFFFFF;" edge="1" parent="2itxbGJ-XOyHhQqazjQB-28">
          <mxGeometry relative="1" as="geometry">
            <mxPoint x="-218" y="1077.9" as="sourcePoint" />
            <mxPoint x="-118" y="1077.9" as="targetPoint" />
          </mxGeometry>
        </mxCell>
        <mxCell id="2itxbGJ-XOyHhQqazjQB-39" style="edgeStyle=none;curved=1;rounded=0;orthogonalLoop=1;jettySize=auto;html=1;entryX=1;entryY=0.5;entryDx=0;entryDy=0;fontSize=12;startSize=8;endSize=8;endArrow=block;endFill=1;" edge="1" parent="2itxbGJ-XOyHhQqazjQB-28">
          <mxGeometry relative="1" as="geometry">
            <mxPoint x="325" y="1066" as="sourcePoint" />
            <mxPoint x="214" y="1066" as="targetPoint" />
          </mxGeometry>
        </mxCell>
        <mxCell id="2itxbGJ-XOyHhQqazjQB-40" value="Ack" style="edgeLabel;html=1;align=center;verticalAlign=middle;resizable=0;points=[];fontSize=10;" vertex="1" connectable="0" parent="2itxbGJ-XOyHhQqazjQB-39">
          <mxGeometry x="-0.1171" relative="1" as="geometry">
            <mxPoint as="offset" />
          </mxGeometry>
        </mxCell>
        <mxCell id="2itxbGJ-XOyHhQqazjQB-35" value="Producer" style="ellipse;whiteSpace=wrap;html=1;aspect=fixed;fontSize=10;fontStyle=1;strokeWidth=2;" vertex="1" parent="2itxbGJ-XOyHhQqazjQB-28">
          <mxGeometry x="325" y="1038" width="80" height="80" as="geometry" />
        </mxCell>
        <mxCell id="2itxbGJ-XOyHhQqazjQB-36" value="" style="shape=message;html=1;html=1;outlineConnect=0;labelPosition=center;verticalLabelPosition=bottom;align=center;verticalAlign=top;fontSize=16;" vertex="1" parent="2itxbGJ-XOyHhQqazjQB-28">
          <mxGeometry x="145" y="1029" width="18" height="12" as="geometry" />
        </mxCell>
        <mxCell id="2itxbGJ-XOyHhQqazjQB-37" value="" style="edgeStyle=none;curved=1;rounded=0;orthogonalLoop=1;jettySize=auto;html=1;fontSize=12;startSize=8;endSize=8;endArrow=block;endFill=1;strokeWidth=2;entryX=0.003;entryY=0.463;entryDx=0;entryDy=0;entryPerimeter=0;strokeColor=#3DFF1F;flowAnimation=1;" edge="1" parent="2itxbGJ-XOyHhQqazjQB-28">
          <mxGeometry relative="1" as="geometry">
            <mxPoint x="215" y="1080" as="sourcePoint" />
            <mxPoint x="214.05399999999986" y="1079.556" as="targetPoint" />
          </mxGeometry>
        </mxCell>
        <mxCell id="2itxbGJ-XOyHhQqazjQB-15" value="camada3" style="" visible="0" parent="0" />
        <mxCell id="2itxbGJ-XOyHhQqazjQB-16" style="edgeStyle=none;curved=1;rounded=0;orthogonalLoop=1;jettySize=auto;html=1;fontSize=12;startSize=8;endSize=8;endArrow=block;endFill=1;strokeWidth=1;strokeColor=#FFFFFF;flowAnimation=0;" edge="1" parent="2itxbGJ-XOyHhQqazjQB-15" source="2itxbGJ-XOyHhQqazjQB-17" target="2itxbGJ-XOyHhQqazjQB-19">
          <mxGeometry relative="1" as="geometry" />
        </mxCell>
        <mxCell id="2itxbGJ-XOyHhQqazjQB-17" value="Exchange" style="rhombus;whiteSpace=wrap;html=1;fontSize=15;strokeWidth=2;fontStyle=1" vertex="1" parent="2itxbGJ-XOyHhQqazjQB-15">
          <mxGeometry x="-117.15999999999997" y="1025.5" width="105" height="105" as="geometry" />
        </mxCell>
        <mxCell id="2itxbGJ-XOyHhQqazjQB-18" style="edgeStyle=none;curved=1;rounded=0;orthogonalLoop=1;jettySize=auto;html=1;fontSize=12;startSize=8;endSize=8;endArrow=block;endFill=1;strokeWidth=2;entryX=0.003;entryY=0.463;entryDx=0;entryDy=0;entryPerimeter=0;strokeColor=#3DFF1F;flowAnimation=1;exitX=1.015;exitY=0.539;exitDx=0;exitDy=0;exitPerimeter=0;" edge="1" parent="2itxbGJ-XOyHhQqazjQB-15" source="2itxbGJ-XOyHhQqazjQB-19">
          <mxGeometry relative="1" as="geometry">
            <mxPoint x="232" y="1080.0567709996806" as="sourcePoint" />
            <mxPoint x="323.192" y="1080.6319999999998" as="targetPoint" />
          </mxGeometry>
        </mxCell>
        <mxCell id="2itxbGJ-XOyHhQqazjQB-19" value="Queue" style="rounded=1;whiteSpace=wrap;html=1;fontSize=11;fontStyle=1;fillColor=#191A21;" vertex="1" parent="2itxbGJ-XOyHhQqazjQB-15">
          <mxGeometry x="94" y="1048" width="120" height="60" as="geometry" />
        </mxCell>
        <mxCell id="2itxbGJ-XOyHhQqazjQB-20" value="Producer" style="ellipse;whiteSpace=wrap;html=1;aspect=fixed;fontSize=10;fontStyle=1;strokeWidth=2;" vertex="1" parent="2itxbGJ-XOyHhQqazjQB-15">
          <mxGeometry x="-298" y="1038" width="80" height="80" as="geometry" />
        </mxCell>
        <mxCell id="2itxbGJ-XOyHhQqazjQB-21" value="" style="endArrow=block;html=1;rounded=0;fontSize=12;startSize=8;endSize=8;curved=1;endFill=1;strokeWidth=1;flowAnimation=0;strokeColor=#FFFFFF;" edge="1" parent="2itxbGJ-XOyHhQqazjQB-15">
          <mxGeometry relative="1" as="geometry">
            <mxPoint x="-218" y="1077.9" as="sourcePoint" />
            <mxPoint x="-118" y="1077.9" as="targetPoint" />
          </mxGeometry>
        </mxCell>
        <mxCell id="2itxbGJ-XOyHhQqazjQB-22" value="Producer" style="ellipse;whiteSpace=wrap;html=1;aspect=fixed;fontSize=10;fontStyle=1;strokeWidth=2;" vertex="1" parent="2itxbGJ-XOyHhQqazjQB-15">
          <mxGeometry x="325" y="1038" width="80" height="80" as="geometry" />
        </mxCell>
        <mxCell id="2itxbGJ-XOyHhQqazjQB-23" value="" style="shape=message;html=1;html=1;outlineConnect=0;labelPosition=center;verticalLabelPosition=bottom;align=center;verticalAlign=top;fontSize=16;" vertex="1" parent="2itxbGJ-XOyHhQqazjQB-15">
          <mxGeometry x="145" y="1029" width="18" height="12" as="geometry" />
        </mxCell>
        <mxCell id="2itxbGJ-XOyHhQqazjQB-24" value="" style="edgeStyle=none;curved=1;rounded=0;orthogonalLoop=1;jettySize=auto;html=1;fontSize=12;startSize=8;endSize=8;endArrow=block;endFill=1;strokeWidth=2;entryX=0.003;entryY=0.463;entryDx=0;entryDy=0;entryPerimeter=0;strokeColor=#3DFF1F;flowAnimation=1;" edge="1" parent="2itxbGJ-XOyHhQqazjQB-15">
          <mxGeometry relative="1" as="geometry">
            <mxPoint x="215" y="1080" as="sourcePoint" />
            <mxPoint x="214.05399999999986" y="1079.556" as="targetPoint" />
          </mxGeometry>
        </mxCell>
        <mxCell id="2itxbGJ-XOyHhQqazjQB-27" value="" style="shape=message;html=1;html=1;outlineConnect=0;labelPosition=center;verticalLabelPosition=bottom;align=center;verticalAlign=top;fontSize=16;" vertex="1" parent="2itxbGJ-XOyHhQqazjQB-15">
          <mxGeometry x="291" y="1074" width="18" height="12" as="geometry" />
        </mxCell>
        <mxCell id="2itxbGJ-XOyHhQqazjQB-3" value="camada2" style="" visible="0" parent="0" />
        <mxCell id="2itxbGJ-XOyHhQqazjQB-4" style="edgeStyle=none;curved=1;rounded=0;orthogonalLoop=1;jettySize=auto;html=1;fontSize=12;startSize=8;endSize=8;endArrow=block;endFill=1;strokeWidth=1;strokeColor=#FFFFFF;flowAnimation=0;" edge="1" parent="2itxbGJ-XOyHhQqazjQB-3" source="2itxbGJ-XOyHhQqazjQB-5" target="2itxbGJ-XOyHhQqazjQB-7">
          <mxGeometry relative="1" as="geometry" />
        </mxCell>
        <mxCell id="2itxbGJ-XOyHhQqazjQB-5" value="Exchange" style="rhombus;whiteSpace=wrap;html=1;fontSize=15;strokeWidth=2;fontStyle=1" vertex="1" parent="2itxbGJ-XOyHhQqazjQB-3">
          <mxGeometry x="-117.15999999999997" y="1025.5" width="105" height="105" as="geometry" />
        </mxCell>
        <mxCell id="2itxbGJ-XOyHhQqazjQB-6" style="edgeStyle=none;curved=1;rounded=0;orthogonalLoop=1;jettySize=auto;html=1;fontSize=12;startSize=8;endSize=8;endArrow=block;endFill=1;strokeWidth=2;entryX=0.003;entryY=0.463;entryDx=0;entryDy=0;entryPerimeter=0;strokeColor=#3DFF1F;flowAnimation=1;" edge="1" parent="2itxbGJ-XOyHhQqazjQB-3" source="2itxbGJ-XOyHhQqazjQB-12">
          <mxGeometry relative="1" as="geometry">
            <mxPoint x="215" y="1080" as="sourcePoint" />
            <mxPoint x="323.192" y="1080.6319999999998" as="targetPoint" />
          </mxGeometry>
        </mxCell>
        <mxCell id="2itxbGJ-XOyHhQqazjQB-7" value="Queue" style="rounded=1;whiteSpace=wrap;html=1;fontSize=11;fontStyle=1;fillColor=#191A21;" vertex="1" parent="2itxbGJ-XOyHhQqazjQB-3">
          <mxGeometry x="94" y="1048" width="120" height="60" as="geometry" />
        </mxCell>
        <mxCell id="2itxbGJ-XOyHhQqazjQB-8" value="Producer" style="ellipse;whiteSpace=wrap;html=1;aspect=fixed;fontSize=10;fontStyle=1;strokeWidth=2;" vertex="1" parent="2itxbGJ-XOyHhQqazjQB-3">
          <mxGeometry x="-298" y="1038" width="80" height="80" as="geometry" />
        </mxCell>
        <mxCell id="2itxbGJ-XOyHhQqazjQB-9" value="" style="endArrow=block;html=1;rounded=0;fontSize=12;startSize=8;endSize=8;curved=1;endFill=1;strokeWidth=1;flowAnimation=0;strokeColor=#FFFFFF;" edge="1" parent="2itxbGJ-XOyHhQqazjQB-3">
          <mxGeometry relative="1" as="geometry">
            <mxPoint x="-218" y="1077.9" as="sourcePoint" />
            <mxPoint x="-118" y="1077.9" as="targetPoint" />
          </mxGeometry>
        </mxCell>
        <mxCell id="2itxbGJ-XOyHhQqazjQB-10" value="Producer" style="ellipse;whiteSpace=wrap;html=1;aspect=fixed;fontSize=10;fontStyle=1;strokeWidth=2;" vertex="1" parent="2itxbGJ-XOyHhQqazjQB-3">
          <mxGeometry x="325" y="1038" width="80" height="80" as="geometry" />
        </mxCell>
        <mxCell id="2itxbGJ-XOyHhQqazjQB-11" value="" style="shape=message;html=1;html=1;outlineConnect=0;labelPosition=center;verticalLabelPosition=bottom;align=center;verticalAlign=top;fontSize=16;" vertex="1" parent="2itxbGJ-XOyHhQqazjQB-3">
          <mxGeometry x="145" y="1029" width="18" height="12" as="geometry" />
        </mxCell>
        <mxCell id="2itxbGJ-XOyHhQqazjQB-13" value="" style="edgeStyle=none;curved=1;rounded=0;orthogonalLoop=1;jettySize=auto;html=1;fontSize=12;startSize=8;endSize=8;endArrow=block;endFill=1;strokeWidth=2;entryX=0.003;entryY=0.463;entryDx=0;entryDy=0;entryPerimeter=0;strokeColor=#3DFF1F;flowAnimation=1;" edge="1" parent="2itxbGJ-XOyHhQqazjQB-3" target="2itxbGJ-XOyHhQqazjQB-12">
          <mxGeometry relative="1" as="geometry">
            <mxPoint x="215" y="1080" as="sourcePoint" />
            <mxPoint x="323.192" y="1080.6319999999998" as="targetPoint" />
          </mxGeometry>
        </mxCell>
        <mxCell id="2itxbGJ-XOyHhQqazjQB-12" value="" style="shape=message;html=1;html=1;outlineConnect=0;labelPosition=center;verticalLabelPosition=bottom;align=center;verticalAlign=top;fontSize=16;" vertex="1" parent="2itxbGJ-XOyHhQqazjQB-3">
          <mxGeometry x="214" y="1074" width="18" height="12" as="geometry" />
        </mxCell>
        <mxCell id="ufFklaLvF3Zcsidc5OTK-314" value="camada1" style="" parent="0" visible="0" />
        <mxCell id="ufFklaLvF3Zcsidc5OTK-315" style="edgeStyle=none;curved=1;rounded=0;orthogonalLoop=1;jettySize=auto;html=1;fontSize=12;startSize=8;endSize=8;endArrow=block;endFill=1;strokeWidth=1;strokeColor=#FFFFFF;flowAnimation=0;" parent="ufFklaLvF3Zcsidc5OTK-314" source="ufFklaLvF3Zcsidc5OTK-318" target="ufFklaLvF3Zcsidc5OTK-322" edge="1">
          <mxGeometry relative="1" as="geometry" />
        </mxCell>
        <mxCell id="ufFklaLvF3Zcsidc5OTK-318" value="Exchange" style="rhombus;whiteSpace=wrap;html=1;fontSize=15;strokeWidth=2;fontStyle=1" parent="ufFklaLvF3Zcsidc5OTK-314" vertex="1">
          <mxGeometry x="-117.15999999999997" y="1025.5" width="105" height="105" as="geometry" />
        </mxCell>
        <mxCell id="ufFklaLvF3Zcsidc5OTK-321" style="edgeStyle=none;curved=1;rounded=0;orthogonalLoop=1;jettySize=auto;html=1;fontSize=12;startSize=8;endSize=8;endArrow=block;endFill=1;strokeWidth=2;entryX=0.003;entryY=0.463;entryDx=0;entryDy=0;entryPerimeter=0;strokeColor=#3DFF1F;flowAnimation=1;" parent="ufFklaLvF3Zcsidc5OTK-314" edge="1">
          <mxGeometry relative="1" as="geometry">
            <mxPoint x="215" y="1080" as="sourcePoint" />
            <mxPoint x="323.192" y="1080.6319999999998" as="targetPoint" />
          </mxGeometry>
        </mxCell>
        <mxCell id="ufFklaLvF3Zcsidc5OTK-322" value="Queue" style="rounded=1;whiteSpace=wrap;html=1;fontSize=11;fontStyle=1;fillColor=#191A21;" parent="ufFklaLvF3Zcsidc5OTK-314" vertex="1">
          <mxGeometry x="94" y="1048" width="120" height="60" as="geometry" />
        </mxCell>
        <mxCell id="ufFklaLvF3Zcsidc5OTK-331" value="Producer" style="ellipse;whiteSpace=wrap;html=1;aspect=fixed;fontSize=10;fontStyle=1;strokeWidth=2;" parent="ufFklaLvF3Zcsidc5OTK-314" vertex="1">
          <mxGeometry x="-298" y="1038" width="80" height="80" as="geometry" />
        </mxCell>
        <mxCell id="ufFklaLvF3Zcsidc5OTK-332" value="" style="endArrow=block;html=1;rounded=0;fontSize=12;startSize=8;endSize=8;curved=1;endFill=1;strokeWidth=1;flowAnimation=0;strokeColor=#FFFFFF;" parent="ufFklaLvF3Zcsidc5OTK-314" edge="1">
          <mxGeometry relative="1" as="geometry">
            <mxPoint x="-218" y="1077.9" as="sourcePoint" />
            <mxPoint x="-118" y="1077.9" as="targetPoint" />
          </mxGeometry>
        </mxCell>
        <mxCell id="2itxbGJ-XOyHhQqazjQB-0" value="Producer" style="ellipse;whiteSpace=wrap;html=1;aspect=fixed;fontSize=10;fontStyle=1;strokeWidth=2;" vertex="1" parent="ufFklaLvF3Zcsidc5OTK-314">
          <mxGeometry x="325" y="1038" width="80" height="80" as="geometry" />
        </mxCell>
        <mxCell id="2itxbGJ-XOyHhQqazjQB-1" value="" style="shape=message;html=1;html=1;outlineConnect=0;labelPosition=center;verticalLabelPosition=bottom;align=center;verticalAlign=top;fontSize=16;" vertex="1" parent="ufFklaLvF3Zcsidc5OTK-314">
          <mxGeometry x="145" y="1029" width="18" height="12" as="geometry" />
        </mxCell>
        <mxCell id="2itxbGJ-XOyHhQqazjQB-2" value="" style="shape=message;html=1;html=1;outlineConnect=0;labelPosition=center;verticalLabelPosition=bottom;align=center;verticalAlign=top;fontSize=16;" vertex="1" parent="ufFklaLvF3Zcsidc5OTK-314">
          <mxGeometry x="145" y="1010" width="18" height="12" as="geometry" />
        </mxCell>
      </root>
    </mxGraphModel>
  </diagram>
</mxfile>
